# xmcd
#
# Track frame offsets:
#	150
#	11986
#	28347
#	47368
#	60071
#	79028
#	93224
#	107638
#	123807
#	137694
#	153154
#	166194
#	182101
#	206920
#	226678
#
# Disc length: 3300 seconds
#
# Revision: 1
# Processed by: cddbd v1.5.1PL0 Copyright (c) Steve Scherf et al.
# Submitted via: EasyCDDAExtractor 5.1.0
#
DISCID=af0ce20f
DTITLE=The Blues Band - Thank You Brother Ray - Work In Progress
DYEAR=2004
DGENRE=Blues
TTITLE0=Sticks 'N' Stones
TTITLE1=I Don't Need No Doctor
TTITLE2=Busted
TTITLE3=Hard Times Vers.  2
TTITLE4=Hallelujah I Love Her So
TTITLE5=They're Crazy 'Bout Me
TTITLE6=Let The Good Times Roll
TTITLE7=Lonely Avenue
TTITLE8=I'm Movin' On Vers. 2
TTITLE9=Georgia On My  Mind
TTITLE10=Making Whoopee
TTITLE11=Losing Hand
TTITLE12=Tell Me What Ya Wanna' Do
TTITLE13=Leave My Woman Alone
TTITLE14=Thank You Brother Ray Vers. 1
EXTD=[2038]
EXTT0=
EXTT1=
EXTT2=
EXTT3=
EXTT4=
EXTT5=
EXTT6=
EXTT7=
EXTT8=
EXTT9=
EXTT10=
EXTT11=
EXTT12=
EXTT13=
EXTT14=
PLAYORDER=
